<?xml version="1.0" encoding="UTF-8"?>
<svg version="1.1" xmlns="http://www.w3.org/2000/svg" width="446" height="72">
<path d="M0 0 C147.18 0 294.36 0 446 0 C446 23.76 446 47.52 446 72 C298.82 72 151.64 72 0 72 C0 48.24 0 24.48 0 0 Z " fill="#1B221D" transform="translate(0,0)"/>
<path d="M0 0 C1.65 0 3.3 0 5 0 C5 23.76 5 47.52 5 72 C3.35 72 1.7 72 0 72 C0 48.24 0 24.48 0 0 Z " fill="#FFFFFF" transform="translate(441,0)"/>
<path d="M0 0 C1.65 0 3.3 0 5 0 C6.98 3.96 8.96 7.92 11 12 C13.23574822 9.76425178 14.24368358 7.71033371 15.625 4.875 C16.07101563 3.96492188 16.51703125 3.05484375 16.9765625 2.1171875 C17.48316406 1.06917969 17.48316406 1.06917969 18 0 C19.65 0 21.3 0 23 0 C23 6.6 23 13.2 23 20 C21.35 20 19.7 20 18 20 C17.67 17.03 17.34 14.06 17 11 C15.68 13.97 14.36 16.94 13 20 C11.68 19.67 10.36 19.34 9 19 C7.25 15.4375 7.25 15.4375 6 12 C5.67 14.64 5.34 17.28 5 20 C3.35 20 1.7 20 0 20 C0 13.4 0 6.8 0 0 Z " fill="#CDCFCE" transform="translate(130,30)"/>
<path d="M0 0 C11.6556391 -0.12669173 11.6556391 -0.12669173 16 1 C16.33 0.67 16.66 0.34 17 0 C20.16080567 -0.2809605 22.32030913 -0.34166929 25.18359375 1.09765625 C27 3 27 3 27.390625 6.13671875 C27.32101563 7.89435547 27.32101563 7.89435547 27.25 9.6875 C27.21390625 10.86699219 27.1778125 12.04648437 27.140625 13.26171875 C27.07101563 14.61716797 27.07101563 14.61716797 27 16 C25.68 16 24.36 16 23 16 C22.67 12.37 22.34 8.74 22 5 C19.03 4.505 19.03 4.505 16 4 C16 7.96 16 11.92 16 16 C14.35 16 12.7 16 11 16 C11 12.04 11 8.08 11 4 C9.02 4 7.04 4 5 4 C5 7.96 5 11.92 5 16 C3.35 16 1.7 16 0 16 C0 10.72 0 5.44 0 0 Z " fill="#D8D9D8" transform="translate(175,34)"/>
<path d="M0 0 C11.25 -0.26785714 11.25 -0.26785714 15 2 C15.66 1.34 16.32 0.68 17 0 C21.05261287 -0.34490322 22.54754176 -0.30163882 26 2 C26.29296875 5.0390625 26.29296875 5.0390625 26.1875 8.625 C26.16042969 9.81351563 26.13335937 11.00203125 26.10546875 12.2265625 C26.07066406 13.14179687 26.03585937 14.05703125 26 15 C25.01 15 24.02 15 23 15 C22.505 10.05 22.505 10.05 22 5 C19.03 4.505 19.03 4.505 16 4 C16 7.96 16 11.92 16 16 C14.35 16 12.7 16 11 16 C10.67 12.37 10.34 8.74 10 5 C8.35 5 6.7 5 5 5 C4.67 8.63 4.34 12.26 4 16 C2.68 16 1.36 16 0 16 C0 10.72 0 5.44 0 0 Z " fill="#DDDEDD" transform="translate(274,34)"/>
<path d="M0 0 C2.9375 1.5625 2.9375 1.5625 5 4 C5.6694949 8.09135771 5.38501272 10.24601675 3.5 13.9375 C0.45855278 16.44669396 -1.24113553 16.69047708 -5.09375 16.41015625 C-7 16 -7 16 -9.5 14.5 C-11.61897146 10.9683809 -11.79841448 8.01676563 -11 4 C-8.1553332 -0.55146687 -5.11689336 -0.71816047 0 0 Z " fill="#E5E6E5" transform="translate(167,34)"/>
<path d="M0 0 C2.9375 2.25 2.9375 2.25 5 5 C5 6.32 5 7.64 5 9 C1.04 9 -2.92 9 -7 9 C-6.01 10.485 -6.01 10.485 -5 12 C-0.545 11.505 -0.545 11.505 4 11 C2 15 2 15 1 16 C-6.03846154 16.57692308 -6.03846154 16.57692308 -9.5 14.5 C-11.61897146 10.9683809 -11.79841448 8.01676563 -11 4 C-8.16650967 -0.53358453 -5.10426635 -0.80593679 0 0 Z " fill="#E8E9E8" transform="translate(216,34)"/>
<path d="M0 0 C11.28301887 -0.49056604 11.28301887 -0.49056604 14.375 1.625 C16.47563909 4.69516482 16.41020363 6.56531658 16.25 10.25 C16.21390625 11.32765625 16.1778125 12.4053125 16.140625 13.515625 C16.07101563 14.74539062 16.07101563 14.74539062 16 16 C14.35 16 12.7 16 11 16 C10.67 12.37 10.34 8.74 10 5 C8.35 5 6.7 5 5 5 C4.67 8.63 4.34 12.26 4 16 C2.68 16 1.36 16 0 16 C0 10.72 0 5.44 0 0 Z " fill="#F0F1F0" transform="translate(224,34)"/>
<path d="M0 0 C1.65 0 3.3 0 5 0 C5.33 3.96 5.66 7.92 6 12 C7.65 11.67 9.3 11.34 11 11 C11.33 7.37 11.66 3.74 12 0 C13.32 0 14.64 0 16 0 C16 5.28 16 10.56 16 16 C3.57714702 16.49199418 3.57714702 16.49199418 1.09375 14.375 C-0.30384783 11.34021613 -0.29604458 9.07870059 -0.1875 5.75 C-0.14689453 4.13351563 -0.14689453 4.13351563 -0.10546875 2.484375 C-0.07066406 1.66453125 -0.03585938 0.8446875 0 0 Z " fill="#D3D4D4" transform="translate(254,34)"/>
<path d="M0 0 C0.99 0 1.98 0 3 0 C3 1.32 3 2.64 3 4 C3.2981424 5.34164079 3.62243192 6.67851173 4 8 C5.65 7.67 7.3 7.34 9 7 C9 7.66 9 8.32 9 9 C8.34 9 7.68 9 7 9 C6.34 10.65 5.68 12.3 5 14 C6.65 14.33 8.3 14.66 10 15 C9.67 15.99 9.34 16.98 9 18 C3.25 18.125 3.25 18.125 1 17 C0.67 19.64 0.34 22.28 0 25 C-1.98 25 -3.96 25 -6 25 C-6 21.37 -6 17.74 -6 14 C-5.67 14 -5.34 14 -5 14 C-5 17.3 -5 20.6 -5 24 C-4.01 24 -3.02 24 -2 24 C-2 19.71 -2 15.42 -2 11 C-2.99 10.67 -3.98 10.34 -5 10 C-4.34 9.34 -3.68 8.68 -3 8 C-2.11221308 6.03511169 -2.11221308 6.03511169 -1.375 3.875 C-0.98441406 2.78832031 -0.98441406 2.78832031 -0.5859375 1.6796875 C-0.29589844 0.84824219 -0.29589844 0.84824219 0 0 Z " fill="#445C47" transform="translate(302,25)"/>
<path d="M0 0 C1.32 0 2.64 0 4 0 C4 1.32 4 2.64 4 4 C5.32 4 6.64 4 8 4 C8 5.32 8 6.64 8 8 C6.68 8 5.36 8 4 8 C4 10.97 4 13.94 4 17 C5.32 17 6.64 17 8 17 C8 17.99 8 18.98 8 20 C5.125 20.125 5.125 20.125 2 20 C0 18 0 18 -0.1953125 15.6171875 C-0.17210937 14.71226563 -0.14890625 13.80734375 -0.125 12.875 C-0.10695312 11.96492188 -0.08890625 11.05484375 -0.0703125 10.1171875 C-0.04710937 9.41851562 -0.02390625 8.71984375 0 8 C-0.66 8 -1.32 8 -2 8 C-2 6.68 -2 5.36 -2 4 C-1.34 4 -0.68 4 0 4 C0 2.68 0 1.36 0 0 Z " fill="#DEE0DE" transform="translate(244,30)"/>
<path d="M0 0 C3.47466093 0.42546869 4.65216254 0.87175874 7.0625 3.375 C7.453125 6.51171875 7.453125 6.51171875 7.3125 10.0625 C7.27640625 11.24199219 7.2403125 12.42148437 7.203125 13.63671875 C7.13351563 14.99216797 7.13351563 14.99216797 7.0625 16.375 C5.7425 16.375 4.4225 16.375 3.0625 16.375 C2.7325 12.745 2.4025 9.115 2.0625 5.375 C-0.5775 4.715 -3.2175 4.055 -5.9375 3.375 C-4.05554105 0.86572141 -3.17650531 0.40551132 0 0 Z " fill="#E1E2E1" transform="translate(194.9375,33.625)"/>
<path d="M0 0 C3.63 0 7.26 0 11 0 C9.02 0.99 9.02 0.99 7 2 C7.99 2.66 8.98 3.32 10 4 C8.35 4.33 6.7 4.66 5 5 C4.67 8.63 4.34 12.26 4 16 C2.68 16 1.36 16 0 16 C0 10.72 0 5.44 0 0 Z " fill="#ECECEC" transform="translate(274,34)"/>
<path d="M0 0 C5.45454545 -0.36363636 5.45454545 -0.36363636 7.6875 1.125 C9.58347379 3.83353399 9.29278753 5.92358655 9.1875 9.1875 C9.16042969 10.27417969 9.13335937 11.36085938 9.10546875 12.48046875 C9.07066406 13.31191406 9.03585938 14.14335938 9 15 C7.35 15 5.7 15 4 15 C3.67 10.71 3.34 6.42 3 2 C2.01 1.67 1.02 1.34 0 1 C0 0.67 0 0.34 0 0 Z " fill="#D9DAD9" transform="translate(231,35)"/>
<path d="M0 0 C1.32 0 2.64 0 4 0 C4 6.27 4 12.54 4 19 C3.01 19 2.02 19 1 19 C1 15.04 1 11.08 1 7 C0.01 7 -0.98 7 -2 7 C-1.125 1.125 -1.125 1.125 0 0 Z " fill="#F9F9F9" transform="translate(148,30)"/>
<path d="M0 0 C1.32 0 2.64 0 4 0 C4 5.28 4 10.56 4 16 C1.36 15.67 -1.28 15.34 -4 15 C-3.34 14.67 -2.68 14.34 -2 14 C-0.99740493 10.99221479 -0.69685358 8.46179353 -0.4375 5.3125 C-0.31181641 3.82169922 -0.31181641 3.82169922 -0.18359375 2.30078125 C-0.12300781 1.54152344 -0.06242187 0.78226563 0 0 Z " fill="#E6E7E6" transform="translate(266,34)"/>
<path d="M0 0 C4.05445642 -0.43132515 5.54970958 -0.30019361 9 2 C9.29296875 5.0390625 9.29296875 5.0390625 9.1875 8.625 C9.16042969 9.81351563 9.13335937 11.00203125 9.10546875 12.2265625 C9.07066406 13.14179687 9.03585937 14.05703125 9 15 C8.01 15 7.02 15 6 15 C5.67 11.7 5.34 8.4 5 5 C2.69 4.34 0.38 3.68 -2 3 C-1.34 2.01 -0.68 1.02 0 0 Z " fill="#EEEEEE" transform="translate(291,34)"/>
<path d="M0 0 C1.4540625 0.0309375 1.4540625 0.0309375 2.9375 0.0625 C3.5625 2.9375 3.5625 2.9375 3.9375 6.0625 C1.9375 8.0625 1.9375 8.0625 -0.625 8.25 C-3.0625 8.0625 -3.0625 8.0625 -4.0625 7.0625 C-4.1875 4.0625 -4.1875 4.0625 -4.0625 1.0625 C-3.0625 0.0625 -3.0625 0.0625 0 0 Z " fill="#232924" transform="translate(164.0625,37.9375)"/>
<path d="M0 0 C0.99 0 1.98 0 3 0 C5.38314183 3.20807554 6.43768609 6.06380262 7 10 C6.01 10.66 5.02 11.32 4 12 C0.3125 10.625 0.3125 10.625 -3 9 C-1.68 8.67 -0.36 8.34 1 8 C1.08226668 4.95613276 0.97608217 2.92824652 0 0 Z " fill="#3E6043" transform="translate(284,25)"/>
<path d="M0 0 C3.96 0 7.92 0 12 0 C11 2 11 2 8.75 3.1875 C5.69751418 4.08937081 4.02265546 3.86361585 1 3 C0.67 2.01 0.34 1.02 0 0 Z " fill="#484D4B" transform="translate(209,43)"/>
<path d="M0 0 C4.875 0.875 4.875 0.875 6 2 C6.04063832 3.66617115 6.042721 5.33388095 6 7 C4.125 6.875 4.125 6.875 2 6 C0.75 2.9375 0.75 2.9375 0 0 Z " fill="#F5F5F5" transform="translate(214,35)"/>
<path d="M0 0 C1.65 0.33 3.3 0.66 5 1 C5.33 1.99 5.66 2.98 6 4 C3.36 4 0.72 4 -2 4 C-1.34 2.68 -0.68 1.36 0 0 Z " fill="#595E5C" transform="translate(211,37)"/>
<path d="M0 0 C0.33 0.66 0.66 1.32 1 2 C1.99 2 2.98 2 4 2 C4 2.66 4 3.32 4 4 C3.34 4 2.68 4 2 4 C1.67 4.99 1.34 5.98 1 7 C0.01 7.33 -0.98 7.66 -2 8 C-1.125 2.25 -1.125 2.25 0 0 Z " fill="#E1E2E1" transform="translate(145,35)"/>
<path d="M0 0 C2.31 0 4.62 0 7 0 C6.67 0.99 6.34 1.98 6 3 C4.02 3 2.04 3 0 3 C0 2.01 0 1.02 0 0 Z " fill="#509256" transform="translate(305,40)"/>
<path d="M0 0 C0.99 0 1.98 0 3 0 C3 2.31 3 4.62 3 7 C2.01 7 1.02 7 0 7 C0 4.69 0 2.38 0 0 Z " fill="#4E8F56" transform="translate(293,23)"/>
<path d="M0 0 C-1.98 0.99 -1.98 0.99 -4 2 C-3.34 2.66 -2.68 3.32 -2 4 C-3.65 4 -5.3 4 -7 4 C-7.33 3.01 -7.66 2.02 -8 1 C-5.29120665 -0.35439668 -2.99066732 -0.06501451 0 0 Z " fill="#C2C4C2" transform="translate(236,34)"/>
</svg>
