<?xml version="1.0" encoding="UTF-8"?>
<svg version="1.1" xmlns="http://www.w3.org/2000/svg" width="102" height="98">
<path d="M0 0 C33.66 0 67.32 0 102 0 C102 32.34 102 64.68 102 98 C68.34 98 34.68 98 0 98 C0 65.66 0 33.32 0 0 Z " fill="#17201A" transform="translate(0,0)"/>
<path d="M0 0 C2.31 0 4.62 0 7 0 C7 0.99 7 1.98 7 3 C7.53625 2.51273438 8.0725 2.02546875 8.625 1.5234375 C11.60520191 -0.38820517 13.48309665 -0.40137678 17 -0.375 C18.03125 -0.38273437 19.0625 -0.39046875 20.125 -0.3984375 C23.312738 0.04334141 24.72410708 0.75693246 27 3 C27 3.66 27 4.32 27 5 C27.928125 4.175 28.85625 3.35 29.8125 2.5 C33.91612172 -0.41924309 37.44670178 -0.71813005 42.40234375 -0.5 C46.49819111 0.28837363 48.225327 1.93325616 51 5 C52.3308911 7.66178221 52.11268993 9.68739396 52.09765625 12.6640625 C52.09443359 13.78554688 52.09121094 14.90703125 52.08789062 16.0625 C52.07532227 17.8259375 52.07532227 17.8259375 52.0625 19.625 C52.05798828 20.80835937 52.05347656 21.99171875 52.04882812 23.2109375 C52.03701467 26.14067507 52.02054258 29.07031272 52 32 C49.36 32 46.72 32 44 32 C43.9906543 31.34926514 43.98130859 30.69853027 43.97167969 30.02807617 C43.91800507 27.08044494 43.8343545 24.13440607 43.75 21.1875 C43.73582031 20.16333984 43.72164062 19.13917969 43.70703125 18.08398438 C43.65869141 16.60961914 43.65869141 16.60961914 43.609375 15.10546875 C43.58842773 14.19949951 43.56748047 13.29353027 43.54589844 12.36010742 C43.18884914 9.86275164 43.18884914 9.86275164 41.15722656 8.16918945 C38.10926855 6.51723484 36.26775971 7.07650269 33 8 C30.47871644 10.52128356 30.70646931 11.51239013 30.5859375 15.0078125 C30.54726563 15.99394531 30.50859375 16.98007812 30.46875 17.99609375 C30.42234375 19.54490234 30.42234375 19.54490234 30.375 21.125 C30.33632813 22.16527344 30.29765625 23.20554687 30.2578125 24.27734375 C30.16335234 26.85138311 30.07778786 29.42541155 30 32 C27.36 32 24.72 32 22 32 C21.9906543 31.34926514 21.98130859 30.69853027 21.97167969 30.02807617 C21.91800507 27.08044494 21.8343545 24.13440607 21.75 21.1875 C21.73582031 20.16333984 21.72164062 19.13917969 21.70703125 18.08398438 C21.65869141 16.60961914 21.65869141 16.60961914 21.609375 15.10546875 C21.58842773 14.19949951 21.56748047 13.29353027 21.54589844 12.36010742 C21.16424494 9.91796633 21.16424494 9.91796633 19.46191406 8.1184082 C16.2238053 6.38833484 16.2238053 6.38833484 9 8 C8.67 15.92 8.34 23.84 8 32 C5.36 32 2.72 32 0 32 C0 21.44 0 10.88 0 0 Z " fill="#F7F7F7" transform="translate(17,39)"/>
<path d="M0 0 C4.29 0 8.58 0 13 0 C13.33 1.32 13.66 2.64 14 4 C13 5 13 5 10.05859375 5.09765625 C8.26615234 5.08025391 8.26615234 5.08025391 6.4375 5.0625 C4.64119141 5.04896484 4.64119141 5.04896484 2.80859375 5.03515625 C1.88175781 5.02355469 0.95492187 5.01195312 0 5 C0 3.35 0 1.7 0 0 Z " fill="#5BAD60" transform="translate(77,51)"/>
<path d="M0 0 C0.99 0.33 1.98 0.66 3 1 C2.51675181 6.15464734 -0.18610761 9.81550319 -3 14 C-4.32 13.67 -5.64 13.34 -7 13 C-6.65986985 7.55791766 -3.29703472 4.06331802 0 0 Z " fill="#5BAE60" transform="translate(74,20)"/>
<path d="M0 0 C1.32 0 2.64 0 4 0 C4 4.62 4 9.24 4 14 C2.35 13.67 0.7 13.34 -1 13 C-1.02686553 11.02090602 -1.04633375 9.04171029 -1.0625 7.0625 C-1.07410156 5.96035156 -1.08570313 4.85820312 -1.09765625 3.72265625 C-1 1 -1 1 0 0 Z " fill="#5CAF61" transform="translate(55,16)"/>
<path d="M0 0 C1.82421875 0.2265625 1.82421875 0.2265625 4 1 C5.51953125 2.9609375 5.51953125 2.9609375 6.8125 5.375 C7.25207031 6.16648437 7.69164062 6.95796875 8.14453125 7.7734375 C9 10 9 10 8 13 C5.39611102 12.62642278 4.25705243 12.28877098 2.48046875 10.29296875 C2.05378906 9.59816406 1.62710938 8.90335938 1.1875 8.1875 C0.74792969 7.50042969 0.30835938 6.81335938 -0.14453125 6.10546875 C-1.15965671 3.60705494 -0.91191297 2.48957835 0 0 Z " fill="#5EB463" transform="translate(38,20)"/>
<path d="M0 0 C0 1.32 0 2.64 0 4 C-1.41042956 4.84384675 -2.82864132 5.67469496 -4.25 6.5 C-5.43335937 7.19609375 -5.43335937 7.19609375 -6.640625 7.90625 C-9 9 -9 9 -13 9 C-13 7.68 -13 6.36 -13 5 C-11.58957044 4.15615325 -10.17135868 3.32530504 -8.75 2.5 C-7.56664063 1.80390625 -7.56664063 1.80390625 -6.359375 1.09375 C-4 0 -4 0 0 0 Z " fill="#5FB564" transform="translate(89,34)"/>
</svg>
